<svg xmlns="http://www.w3.org/2000/svg" viewBox="0 0 538 82" class="svg-logotype svg-logotype-name">
    <defs>
        <style>.svg-logotype-name__property-fill{ fill:#fff; }</style>
    </defs>
    <title>Myles Braithwaite</title>
    <g class="svg-logotype-name__myles">
        <path class="svg-logotype__property-fill svg-logotype-name__property-fill" d="M46.73,20.05l-16.37,40H27.91l-16.3-40v40h-6V12h8.58L29.13,48.61,44.13,12h8.58v48.1h-6Z"/>
        <path class="svg-logotype__property-fill svg-logotype-name__property-fill" d="M65.62,69.38c2.38,0,4-.79,5.19-3.68l2.31-5.26L58.55,25.25h5.84L76,53.8,87.54,25.25h5.91L76,67.14c-2.09,5-5.62,7-10.24,7.07a17.55,17.55,0,0,1-4-.5l.87-4.9A8.29,8.29,0,0,0,65.62,69.38Z"/>
        <path class="svg-logotype__property-fill svg-logotype-name__property-fill" d="M99.08,12h5.41v48.1H99.08Z"/>
        <path class="svg-logotype__property-fill svg-logotype-name__property-fill" d="M130.44,24.38c10.53,0,16.73,8.22,16.73,18.68v1.37H119c.43,6.56,5,12,12.55,12a15.22,15.22,0,0,0,10.75-4.4l2.6,3.53A18.92,18.92,0,0,1,131,60.94c-10.31,0-17.74-7.43-17.74-18.32C113.28,32.53,120.49,24.38,130.44,24.38ZM119,40.46h22.86c-.07-5.19-3.53-11.61-11.47-11.61C122.94,28.85,119.27,35.12,119,40.46Z"/>
        <path class="svg-logotype__property-fill svg-logotype-name__property-fill" d="M155.68,51.57a15.78,15.78,0,0,0,11.47,5c5.34,0,8.22-2.38,8.22-5.77,0-3.82-4.25-5-8.94-6.2-5.91-1.37-12.62-3-12.62-10.17,0-5.41,4.69-10,13-10a17.62,17.62,0,0,1,12.91,5l-2.52,3.75a13.57,13.57,0,0,0-10.38-4.4c-4.76,0-7.72,2.16-7.72,5.26,0,3.39,4,4.47,8.51,5.55,6.06,1.37,13.05,3.1,13.05,10.82,0,5.84-4.69,10.53-13.7,10.53-5.7,0-10.53-1.73-14.06-5.48Z"/>
    </g>
    <g class="svg-logotype-name__braithwaite">
        <path class="svg-logotype__property-fill svg-logotype-name__property-fill" d="M209,12h18.1c7.72,0,13.12,4.33,13.12,12.26a11.07,11.07,0,0,1-8.51,11c5.12.79,9.45,6.27,9.45,11.83,0,8.22-5.34,13-13.77,13H209Zm18.1,22.28c7.07,0,10.6-4.47,10.6-10s-3.53-10.1-10.6-10.1H211.28V34.26Zm.29,23.65c7.07,0,11.25-4.18,11.25-10.74,0-5.48-3.75-10.74-11.25-10.74H211.28V57.91Z"/>
        <path class="svg-logotype__property-fill svg-logotype-name__property-fill" d="M252.09,25.25h2.16v6.35c3.1-4.11,6.92-7,12-7v2.6a13.87,13.87,0,0,0-1.73-.07c-3.68,0-8.65,3.61-10.24,6.85v26.1h-2.16Z"/>
        <path class="svg-logotype__property-fill svg-logotype-name__property-fill" d="M296.51,55.82a15.36,15.36,0,0,1-12,5.12c-6.13,0-12.19-4.18-12.19-11.61s6-11.61,12.19-11.61a15.36,15.36,0,0,1,12,5.12V35c0-5.62-4.47-8.65-9.81-8.65-4.54,0-7.93,1.59-11.18,5.48l-1.66-1.44c3.39-4,7-6,12.84-6,6.85,0,12,3.46,12,10.53V60.08h-2.16Zm0-10.82A14.1,14.1,0,0,0,285,39.67c-6.35,0-10.38,4.25-10.38,9.66S278.7,59,285,59a14.09,14.09,0,0,0,11.47-5.34Z"/>
        <path class="svg-logotype__property-fill svg-logotype-name__property-fill" d="M310.07,17.17a2.14,2.14,0,0,1,2.09-2.09,2.09,2.09,0,1,1,0,4.18A2.14,2.14,0,0,1,310.07,17.17Zm1,8.08h2.16V60.08h-2.16Z"/>
        <path class="svg-logotype__property-fill svg-logotype-name__property-fill" d="M326.07,53.95V27.19H320.3V25.25h5.77V15.73h2.16v9.52h7.07v1.95h-7.07V53.95c0,3,1.15,5,3.75,5a5.55,5.55,0,0,0,4.11-1.87l1.3,1.66A7.08,7.08,0,0,1,332,60.94C327.95,60.94,326.07,58.27,326.07,53.95Z"/>
        <path class="svg-logotype__property-fill svg-logotype-name__property-fill" d="M367.61,35.63c0-7.28-3.61-9.3-9-9.3-4.76,0-9.88,3.1-12.33,6.56V60.08H344.1V12h2.16V30.73c2.6-3.17,7.79-6.35,12.62-6.35,6.92,0,10.89,3,10.89,11.25V60.08h-2.16Z"/>
        <path class="svg-logotype__property-fill svg-logotype-name__property-fill" d="M401.36,28.49,390.83,60.08H389.1L377.56,25.25h2.38L390,56.69l10.46-31.44h1.73l10.46,31.44,10.1-31.44h2.38L413.62,60.08h-1.73Z"/>
        <path class="svg-logotype__property-fill svg-logotype-name__property-fill" d="M455.44,55.82a15.36,15.36,0,0,1-12,5.12c-6.13,0-12.19-4.18-12.19-11.61s6-11.61,12.19-11.61a15.36,15.36,0,0,1,12,5.12V35c0-5.62-4.47-8.65-9.81-8.65-4.54,0-7.93,1.59-11.18,5.48l-1.66-1.44c3.39-4,7-6,12.84-6,6.85,0,12,3.46,12,10.53V60.08h-2.16Zm0-10.82A14.1,14.1,0,0,0,444,39.67c-6.35,0-10.38,4.25-10.38,9.66S437.63,59,444,59a14.09,14.09,0,0,0,11.47-5.34Z"/>
        <path class="svg-logotype__property-fill svg-logotype-name__property-fill" d="M469,17.17a2.14,2.14,0,0,1,2.09-2.09,2.09,2.09,0,1,1,0,4.18A2.14,2.14,0,0,1,469,17.17Zm1,8.08h2.16V60.08H470Z"/>
        <path class="svg-logotype__property-fill svg-logotype-name__property-fill" d="M485,53.95V27.19h-5.77V25.25H485V15.73h2.16v9.52h7.07v1.95h-7.07V53.95c0,3,1.15,5,3.75,5A5.55,5.55,0,0,0,495,57.12l1.3,1.66a7.08,7.08,0,0,1-5.41,2.16C486.88,60.94,485,58.27,485,53.95Z"/>
        <path class="svg-logotype__property-fill svg-logotype-name__property-fill" d="M517.52,24.38c10.67,0,16.15,8.58,16.15,18.24v.72H503.6c.22,8.51,5.77,15.65,14.64,15.65a15.88,15.88,0,0,0,12.12-5.26l1.3,1.37a17.41,17.41,0,0,1-13.41,5.84c-10.1,0-17.09-7.72-17.09-18.32C501.15,32.53,508.15,24.38,517.52,24.38Zm-13.92,17h27.76c0-6.71-4.4-15.07-13.92-15.07C508.51,26.33,503.82,34.55,503.6,41.4Z"/>
    </g>
</svg>
